M48
;GenerationSoftware,Autodesk,EAGLE,9.6.2*%
;CreationDate,2020-11-16T13:47:38Z*%
FMAT,2
ICI,OFF
METRIC,TZ,000.000
T4C0.600
T3C0.800
T2C0.813
T1C1.016
%
G90
M71
T1
X40880Y47830
X40880Y50370
X40880Y52910
X40880Y55450
X40880Y57990
X40880Y60530
X40880Y63070
X22620Y42910
X22620Y45450
X22620Y47990
X22620Y50530
X22620Y53070
X22620Y55610
X22620Y58150
X22620Y60690
X22620Y63230
X35960Y37720
X33420Y37720
X30880Y37720
X28340Y37720
X40880Y42750
X40880Y45290
T2
X70863Y65040
X77452Y62040
X49850Y47826
X30889Y34045
X18082Y45477
X46113Y50373
X28330Y34120
X18082Y55629
X18082Y60697
X18082Y58157
X18082Y63229
X46113Y63055
X46113Y55448
X46113Y47826
X80018Y62040
X87648Y39280
X28330Y31200
X30889Y31200
X33378Y31200
X72403Y39280
X57158Y39280
X82555Y62040
X14000Y58178
X14000Y60660
X85090Y39280
X51340Y8510
X90167Y39280
X14000Y50537
X18082Y50537
X18082Y48000
X18082Y53059
X14000Y63229
X73000Y23540
X73000Y21000
X73000Y18460
X21000Y23540
X21000Y21000
X21000Y18460
X46113Y45290
X49850Y45290
X90170Y54610
X87630Y54610
X85090Y54610
X82550Y54610
X80010Y54610
X77470Y54610
X74930Y54610
X72390Y54610
X69850Y54610
X67310Y54610
X64770Y54610
X62230Y54610
X59690Y54610
X57150Y54610
X57150Y46990
X59690Y46990
X62230Y46990
X64770Y46990
X67310Y46990
X69850Y46990
X72390Y46990
X74930Y46990
X77470Y46990
X80010Y46990
X82550Y46990
X85090Y46990
X87630Y46990
X90170Y46990
X58960Y8510
X58960Y11050
X58960Y23750
X51340Y23750
X58960Y13590
X58960Y16130
X58960Y21210
X58960Y18670
X51340Y21210
X51340Y18670
X51340Y16130
X51340Y13590
X51340Y11050
X46113Y60524
X35928Y31280
X70863Y61149
X67290Y61108
X67290Y58612
X70863Y58612
X14000Y55629
X77483Y39280
X14000Y48000
X72403Y42553
X80018Y42553
X82573Y42553
X85090Y42553
X87648Y42553
X90167Y42553
X35928Y34066
X33378Y34069
X82555Y58612
X80018Y58612
X77452Y58612
X64765Y58612
X62260Y58612
X59703Y58612
X77483Y42553
X57158Y42553
X84470Y3204
X81374Y3204
X78382Y3204
X87563Y3204
X33990Y3204
X30950Y3204
X27929Y3204
X37059Y3204
X14000Y45462
X14000Y53059
X49850Y63055
X49850Y60524
X49850Y55448
X49850Y50373
X59703Y62040
X62260Y62040
X64765Y62040
X67290Y65040
T3
X36330Y12050
X78780Y12050
X86670Y12050
X86670Y14590
X86670Y17130
X86670Y19670
X28440Y19670
X28440Y17130
X28440Y22210
X28440Y24750
X86670Y6970
X78780Y6970
X86670Y9510
X78780Y9510
X86670Y24750
X86670Y22210
X36330Y6970
X28440Y6970
X36330Y9510
X28440Y9510
X36330Y24750
X36330Y19670
X36330Y17130
X78780Y17130
X36330Y14590
X28440Y12050
X28440Y14590
X78780Y24750
X78780Y22210
X78780Y19670
X36330Y22210
X78780Y14590
T4
X64000Y30000
X30000Y28000
X80000Y28000
X60000Y28000
X43000Y32000
X86000Y32000
X49000Y17000
X76000Y16000
X47000Y23000
X47000Y15000
X28500Y28800
X78700Y29000
X67000Y29000
X45000Y19000
X55000Y55000
X55000Y46000
X49000Y40000
X11000Y42000
X26000Y27000
X90000Y27000
X69000Y27000
X53000Y57000
X53000Y46000
X52000Y27000
X53000Y55000
X56000Y30000
X62000Y32000
X40000Y27000
M30