G04 EAGLE Gerber RS-274X export*
G75*
%MOMM*%
%FSLAX34Y34*%
%LPD*%
%INSilkscreen Bottom*%
%IPPOS*%
%AMOC8*
5,1,8,0,0,1.08239X$1,22.5*%
G01*
%ADD10C,0.127000*%
%ADD11C,0.152400*%


D10*
X62177Y651938D02*
X53287Y651938D01*
X53187Y651936D01*
X53088Y651930D01*
X52988Y651920D01*
X52890Y651907D01*
X52791Y651889D01*
X52694Y651868D01*
X52598Y651843D01*
X52502Y651814D01*
X52408Y651781D01*
X52315Y651745D01*
X52224Y651705D01*
X52134Y651661D01*
X52046Y651614D01*
X51960Y651564D01*
X51876Y651510D01*
X51794Y651453D01*
X51715Y651393D01*
X51637Y651329D01*
X51563Y651263D01*
X51491Y651194D01*
X51422Y651122D01*
X51356Y651048D01*
X51292Y650970D01*
X51232Y650891D01*
X51175Y650809D01*
X51121Y650725D01*
X51071Y650639D01*
X51024Y650551D01*
X50980Y650461D01*
X50940Y650370D01*
X50904Y650277D01*
X50871Y650183D01*
X50842Y650087D01*
X50817Y649991D01*
X50796Y649894D01*
X50778Y649795D01*
X50765Y649697D01*
X50755Y649597D01*
X50749Y649498D01*
X50747Y649398D01*
X50747Y648128D01*
X50747Y657919D02*
X62177Y657919D01*
X62177Y661094D01*
X62175Y661205D01*
X62169Y661315D01*
X62160Y661426D01*
X62146Y661536D01*
X62129Y661645D01*
X62108Y661754D01*
X62083Y661862D01*
X62054Y661969D01*
X62022Y662075D01*
X61986Y662180D01*
X61946Y662283D01*
X61903Y662385D01*
X61856Y662486D01*
X61805Y662585D01*
X61752Y662682D01*
X61695Y662776D01*
X61634Y662869D01*
X61571Y662960D01*
X61504Y663049D01*
X61434Y663135D01*
X61361Y663218D01*
X61286Y663300D01*
X61208Y663378D01*
X61126Y663453D01*
X61043Y663526D01*
X60957Y663596D01*
X60868Y663663D01*
X60777Y663726D01*
X60684Y663787D01*
X60590Y663844D01*
X60493Y663897D01*
X60394Y663948D01*
X60293Y663995D01*
X60191Y664038D01*
X60088Y664078D01*
X59983Y664114D01*
X59877Y664146D01*
X59770Y664175D01*
X59662Y664200D01*
X59553Y664221D01*
X59444Y664238D01*
X59334Y664252D01*
X59223Y664261D01*
X59113Y664267D01*
X59002Y664269D01*
X58891Y664267D01*
X58781Y664261D01*
X58670Y664252D01*
X58560Y664238D01*
X58451Y664221D01*
X58342Y664200D01*
X58234Y664175D01*
X58127Y664146D01*
X58021Y664114D01*
X57916Y664078D01*
X57813Y664038D01*
X57711Y663995D01*
X57610Y663948D01*
X57511Y663897D01*
X57414Y663844D01*
X57320Y663787D01*
X57227Y663726D01*
X57136Y663663D01*
X57047Y663596D01*
X56961Y663526D01*
X56878Y663453D01*
X56796Y663378D01*
X56718Y663300D01*
X56643Y663218D01*
X56570Y663135D01*
X56500Y663049D01*
X56433Y662960D01*
X56370Y662869D01*
X56309Y662776D01*
X56252Y662682D01*
X56199Y662585D01*
X56148Y662486D01*
X56101Y662385D01*
X56058Y662283D01*
X56018Y662180D01*
X55982Y662075D01*
X55950Y661969D01*
X55921Y661862D01*
X55896Y661754D01*
X55875Y661645D01*
X55858Y661536D01*
X55844Y661426D01*
X55835Y661315D01*
X55829Y661205D01*
X55827Y661094D01*
X55827Y657919D01*
X59637Y668777D02*
X62177Y671952D01*
X50747Y671952D01*
X50747Y668777D02*
X50747Y675127D01*
D11*
X132380Y548665D02*
X134920Y548665D01*
X132380Y548665D02*
X132380Y551205D01*
X147620Y551205D02*
X147620Y548665D01*
X145080Y548665D01*
X147620Y561365D02*
X147620Y563905D01*
X145080Y563905D01*
X134920Y563905D02*
X132380Y563905D01*
X132380Y561365D01*
X132380Y472380D02*
X134920Y472380D01*
X132380Y472380D02*
X132380Y474920D01*
X147620Y474920D02*
X147620Y472380D01*
X145080Y472380D01*
X147620Y485080D02*
X147620Y487620D01*
X145080Y487620D01*
X134920Y487620D02*
X132380Y487620D01*
X132380Y485080D01*
X132380Y446996D02*
X134920Y446996D01*
X132380Y446996D02*
X132380Y449536D01*
X147620Y449536D02*
X147620Y446996D01*
X145080Y446996D01*
X147620Y459696D02*
X147620Y462236D01*
X145080Y462236D01*
X134920Y462236D02*
X132380Y462236D01*
X132380Y459696D01*
X132380Y522968D02*
X134920Y522968D01*
X132380Y522968D02*
X132380Y525508D01*
X147620Y525508D02*
X147620Y522968D01*
X145080Y522968D01*
X147620Y535668D02*
X147620Y538208D01*
X145080Y538208D01*
X134920Y538208D02*
X132380Y538208D01*
X132380Y535668D01*
X173203Y447149D02*
X175743Y447149D01*
X173203Y447149D02*
X173203Y449689D01*
X188443Y449689D02*
X188443Y447149D01*
X185903Y447149D01*
X188443Y459849D02*
X188443Y462389D01*
X185903Y462389D01*
X175743Y462389D02*
X173203Y462389D01*
X173203Y459849D01*
X173203Y548665D02*
X175743Y548665D01*
X173203Y548665D02*
X173203Y551205D01*
X188443Y551205D02*
X188443Y548665D01*
X185903Y548665D01*
X188443Y561365D02*
X188443Y563905D01*
X185903Y563905D01*
X175743Y563905D02*
X173203Y563905D01*
X173203Y561365D01*
X173203Y599346D02*
X175743Y599346D01*
X173203Y599346D02*
X173203Y601886D01*
X188443Y601886D02*
X188443Y599346D01*
X185903Y599346D01*
X188443Y612046D02*
X188443Y614586D01*
X185903Y614586D01*
X175743Y614586D02*
X173203Y614586D01*
X173203Y612046D01*
X173203Y573946D02*
X175743Y573946D01*
X173203Y573946D02*
X173203Y576486D01*
X188443Y576486D02*
X188443Y573946D01*
X185903Y573946D01*
X188443Y586646D02*
X188443Y589186D01*
X185903Y589186D01*
X175743Y589186D02*
X173203Y589186D01*
X173203Y586646D01*
X173203Y624669D02*
X175743Y624669D01*
X173203Y624669D02*
X173203Y627209D01*
X188443Y627209D02*
X188443Y624669D01*
X185903Y624669D01*
X188443Y637369D02*
X188443Y639909D01*
X185903Y639909D01*
X175743Y639909D02*
X173203Y639909D01*
X173203Y637369D01*
X134920Y497746D02*
X132380Y497746D01*
X132380Y500286D01*
X147620Y500286D02*
X147620Y497746D01*
X145080Y497746D01*
X147620Y510446D02*
X147620Y512986D01*
X145080Y512986D01*
X134920Y512986D02*
X132380Y512986D01*
X132380Y510446D01*
X173203Y497746D02*
X175743Y497746D01*
X173203Y497746D02*
X173203Y500286D01*
X188443Y500286D02*
X188443Y497746D01*
X185903Y497746D01*
X188443Y510446D02*
X188443Y512986D01*
X185903Y512986D01*
X175743Y512986D02*
X173203Y512986D01*
X173203Y510446D01*
X173203Y472380D02*
X175743Y472380D01*
X173203Y472380D02*
X173203Y474920D01*
X188443Y474920D02*
X188443Y472380D01*
X185903Y472380D01*
X188443Y485080D02*
X188443Y487620D01*
X185903Y487620D01*
X175743Y487620D02*
X173203Y487620D01*
X173203Y485080D01*
X173203Y522968D02*
X175743Y522968D01*
X173203Y522968D02*
X173203Y525508D01*
X188443Y525508D02*
X188443Y522968D01*
X185903Y522968D01*
X188443Y535668D02*
X188443Y538208D01*
X185903Y538208D01*
X175743Y538208D02*
X173203Y538208D01*
X173203Y535668D01*
X134920Y624669D02*
X132380Y624669D01*
X132380Y627209D01*
X147620Y627209D02*
X147620Y624669D01*
X145080Y624669D01*
X147620Y637369D02*
X147620Y639909D01*
X145080Y639909D01*
X134920Y639909D02*
X132380Y639909D01*
X132380Y637369D01*
M02*
